# xmcd
#
# Track frame offsets: 
#        150
#        18162
#        37900
#        58662
#        74162
#        94962
#        120785
#        142837
#        162287
#        184522
#        206762
#        221100
#
# Disc length: 3159 seconds
#
# Revision: 1
# Processed by: cddbd v1.5.2PL0 Copyright (c) Steve Scherf et al.
# Submitted via: ExactAudioCopy v0.95b4
#
DISCID=a60c550c
DTITLE=Lucky Peterson - Lucky Peterson
DYEAR=1999
DGENRE=Blues
TTITLE0=Deal With It
TTITLE1=The Otherside
TTITLE2=Tribute To Luther Allison
TTITLE3=Shake
TTITLE4=Funny How Time Slips Away
TTITLE5=Why Can't We Live Together
TTITLE6=Ask Me Nothing 'Bout The Blues
TTITLE7=She's Giving Me The Blues
TTITLE8=Seduction
TTITLE9=Ta' Ta' You
TTITLE10=Don't Cry No More
TTITLE11=Ode To Billy Joe
EXTD=©1999 BLUE THUMB FRANCE, A UNIVERSAL MUSIC COMPANY
EXTT0=
EXTT1=
EXTT2=
EXTT3=
EXTT4=
EXTT5=
EXTT6=
EXTT7=
EXTT8=
EXTT9=
EXTT10=
EXTT11=
PLAYORDER=
